<?xml version="1.0" encoding="UTF-8" standalone="no"?>
<!-- Created with Inkscape (http://www.inkscape.org/) -->

<svg
   version="1.1"
   id="svg1"
   width="80"
   height="60"
   viewBox="0 0 80 60"
   sodipodi:docname="SNAPSHOT_SAVE_X.svg"
   xml:space="preserve"
   inkscape:export-filename="/home/one/.config/blender/4.4/scripts/桌面/SNAPSHOT_SAVE_25.png"
   inkscape:export-xdpi="96"
   inkscape:export-ydpi="96"
   inkscape:version="1.4.2 (ebf0e940d0, 2025-05-08)"
   xmlns:inkscape="http://www.inkscape.org/namespaces/inkscape"
   xmlns:sodipodi="http://sodipodi.sourceforge.net/DTD/sodipodi-0.dtd"
   xmlns="http://www.w3.org/2000/svg"
   xmlns:svg="http://www.w3.org/2000/svg"><defs
     id="defs1"><inkscape:path-effect
       effect="fillet_chamfer"
       id="path-effect4"
       is_visible="true"
       lpeversion="1"
       nodesatellites_param="F,0,0,1,0,3,0,1 @ F,0,0,1,0,3,0,1 @ F,0,0,1,0,3,0,1 @ F,0,0,1,0,3,0,1 @ F,0,0,1,0,3,0,1 @ F,0,0,1,0,3,0,1 @ F,0,0,1,0,3,0,1 @ F,0,0,1,0,3,0,1 @ F,0,0,1,0,3,0,1 @ F,0,0,1,0,3,0,1 @ F,0,0,1,0,3,0,1 @ F,0,0,1,0,3,0,1 | F,0,0,1,0,3,0,1 @ F,0,0,1,0,3,0,1 @ F,0,0,1,0,3,0,1 @ F,0,0,1,0,3,0,1"
       radius="4"
       unit="px"
       method="auto"
       mode="F"
       chamfer_steps="1"
       flexible="false"
       use_knot_distance="true"
       apply_no_radius="true"
       apply_with_radius="true"
       only_selected="false"
       hide_knots="false" /></defs><sodipodi:namedview
     id="namedview1"
     pagecolor="#4d4d4d"
     bordercolor="#999999"
     borderopacity="1"
     inkscape:showpageshadow="2"
     inkscape:pageopacity="0"
     inkscape:pagecheckerboard="true"
     inkscape:deskcolor="#d1d1d1"
     inkscape:zoom="12.841059"
     inkscape:cx="44.233112"
     inkscape:cy="55.252452"
     inkscape:window-width="2560"
     inkscape:window-height="1354"
     inkscape:window-x="0"
     inkscape:window-y="0"
     inkscape:window-maximized="1"
     inkscape:current-layer="g1"
     showborder="false"
     inkscape:clip-to-page="false" /><g
     inkscape:groupmode="layer"
     inkscape:label="Image"
     id="g1"
     transform="translate(-1547.2969,-545.979)"
     style="display:none"><g
       id="g31"
       inkscape:label="background"
       style="display:inline;fill:#ffffff"
       transform="matrix(0.36106469,0,0,0.36106469,990.71083,349.96008)"
       sodipodi:insensitive="true"><path
         id="rect4"
         style="display:inline;opacity:1;fill:#ffffff;stroke-width:3.50828;stroke-linecap:round;stroke-linejoin:round;stroke-dasharray:3.50828, 7.01657;paint-order:fill markers stroke"
         d="m 1624.68,551.05654 -20.6627,19.84396 c -1.3884,1.33339 -3.2388,2.07802 -5.1638,2.07802 h -32.7246 c -1.6569,0 -4.373,-0.041 -5.9628,0.40683 -3.6111,1.01733 -6.4451,3.85134 -7.4624,7.46244 -0.4478,1.58976 -0.4068,4.30591 -0.4068,5.96276 v 102.33398 c 0,1.65685 -0.041,4.37299 0.4068,5.96277 1.0173,3.61155 3.8513,6.44654 7.4625,7.46425 1.5897,0.44801 4.3058,0.40697 5.9627,0.40697 h 172.334 c 1.6569,0 4.373,0.041 5.9627,-0.40693 3.6117,-1.01768 6.4467,-3.85271 7.4644,-7.46432 0.4479,-1.58973 0.4069,-4.30589 0.4069,-5.96274 V 586.81055 c 0,-1.65685 0.041,-4.37302 -0.407,-5.96274 -1.0177,-3.61116 -3.8527,-6.44521 -7.4642,-7.4625 -1.5898,-0.44781 -4.3059,-0.40679 -5.9628,-0.40679 h -32.7266 c -1.925,0 -3.7754,-0.74463 -5.1638,-2.07802 l -20.6626,-19.84396 c -1.3884,-1.33339 -3.2388,-2.07802 -5.1638,-2.07802 h -44.9023 c -1.925,0 -3.7754,0.74463 -5.1638,2.07802 z m 30.6148,35.89473 c 22.4642,1.47753 40.4263,19.43963 41.9038,41.90387 0.1087,1.65299 0.1087,4.34272 0,5.9957 -1.4775,22.46425 -19.4396,40.42635 -41.9038,41.90388 -1.653,0.10872 -4.3428,0.10872 -5.9958,0 -22.4642,-1.47753 -40.4263,-19.43963 -41.9038,-41.90388 -0.1087,-1.65298 -0.1087,-4.34271 0,-5.9957 1.4775,-22.46424 19.4396,-40.42634 41.9038,-41.90387 1.653,-0.10873 4.3428,-0.10873 5.9958,0 z"
         sodipodi:nodetypes="ssssssssssssssssssssssssssssssssss"
         inkscape:label="camera" /><path
         id="path5"
         style="display:inline;opacity:0.3;fill:#ffffff;stroke-width:3.66184;stroke-linecap:round;stroke-linejoin:round;stroke-dasharray:3.66184, 7.32368;paint-order:fill markers stroke"
         inkscape:label="circle_0"
         d="m 1691.2969,631.85254 a 39,39 0 0 1 -39,39 39,39 0 0 1 -39,-39 39,39 0 0 1 39,-39 39,39 0 0 1 39,39 z" /></g><path
       style="display:none;opacity:1;fill:#71c837;fill-opacity:1;stroke-width:1.32216;stroke-linecap:round;stroke-linejoin:round;stroke-dasharray:1.32216, 2.64432;paint-order:fill markers stroke"
       id="circle5"
       inkscape:label="circle_15"
       sodipodi:type="arc"
       sodipodi:cx="-578.09973"
       sodipodi:cy="1587.2968"
       sodipodi:rx="14.081522"
       sodipodi:ry="14.081522"
       sodipodi:start="0"
       sodipodi:end="0.26179939"
       sodipodi:arc-type="slice"
       d="m -564.01821,1587.2968 a 14.081522,14.081522 0 0 1 -0.47982,3.6445 l -13.6017,-3.6445 z"
       transform="rotate(-90)" /><path
       style="display:none;opacity:1;fill:#71c837;fill-opacity:1;stroke-width:1.32216;stroke-linecap:round;stroke-linejoin:round;stroke-dasharray:1.32216, 2.64432;paint-order:fill markers stroke"
       id="circle6"
       inkscape:label="circle_30"
       transform="rotate(-90)"
       sodipodi:type="arc"
       sodipodi:cx="-578.09973"
       sodipodi:cy="1587.2968"
       sodipodi:rx="14.081522"
       sodipodi:ry="14.081522"
       sodipodi:start="0"
       sodipodi:end="0.52359878"
       sodipodi:arc-type="slice"
       d="m -564.01821,1587.2968 a 14.081522,14.081522 0 0 1 -1.88657,7.0407 l -12.19495,-7.0407 z" /><path
       style="display:none;opacity:1;fill:#71c837;fill-opacity:1;stroke-width:1.32216;stroke-linecap:round;stroke-linejoin:round;stroke-dasharray:1.32216, 2.64432;paint-order:fill markers stroke"
       id="circle7"
       inkscape:label="circle_45"
       transform="rotate(-90)"
       sodipodi:type="arc"
       sodipodi:cx="-578.09973"
       sodipodi:cy="1587.2968"
       sodipodi:rx="14.081522"
       sodipodi:ry="14.081522"
       sodipodi:start="0"
       sodipodi:end="0.78539816"
       sodipodi:arc-type="slice"
       d="m -564.01821,1587.2968 a 14.081522,14.081522 0 0 1 -4.12438,9.9571 l -9.95714,-9.9571 z" /><path
       style="display:none;opacity:1;fill:#71c837;fill-opacity:1;stroke-width:1.32216;stroke-linecap:round;stroke-linejoin:round;stroke-dasharray:1.32216, 2.64432;paint-order:fill markers stroke"
       id="circle8"
       inkscape:label="circle_60"
       transform="rotate(-90)"
       sodipodi:type="arc"
       sodipodi:cx="-578.09973"
       sodipodi:cy="1587.2968"
       sodipodi:rx="14.081522"
       sodipodi:ry="14.081522"
       sodipodi:start="0"
       sodipodi:end="1.0471976"
       sodipodi:arc-type="slice"
       d="m -564.01821,1587.2968 a 14.081522,14.081522 0 0 1 -7.04076,12.1949 l -7.04076,-12.1949 z" /><path
       style="display:none;opacity:1;fill:#71c837;fill-opacity:1;stroke-width:1.32216;stroke-linecap:round;stroke-linejoin:round;stroke-dasharray:1.32216, 2.64432;paint-order:fill markers stroke"
       id="circle9"
       inkscape:label="circle_75"
       transform="rotate(-90)"
       sodipodi:type="arc"
       sodipodi:cx="-578.09973"
       sodipodi:cy="1587.2968"
       sodipodi:rx="14.081522"
       sodipodi:ry="14.081522"
       sodipodi:start="0"
       sodipodi:end="1.3089969"
       sodipodi:arc-type="slice"
       d="m -564.01821,1587.2968 a 14.081522,14.081522 0 0 1 -10.43695,13.6017 l -3.64457,-13.6017 z" /><path
       style="display:none;opacity:1;fill:#71c837;fill-opacity:1;stroke-width:1.32216;stroke-linecap:round;stroke-linejoin:round;stroke-dasharray:1.32216, 2.64432;paint-order:fill markers stroke"
       id="circle10"
       inkscape:label="circle_90"
       transform="rotate(-90)"
       sodipodi:type="arc"
       sodipodi:cx="-578.09973"
       sodipodi:cy="1587.2968"
       sodipodi:rx="14.081522"
       sodipodi:ry="14.081522"
       sodipodi:start="0"
       sodipodi:end="1.5707963"
       sodipodi:arc-type="slice"
       d="m -564.01821,1587.2968 a 14.081522,14.081522 0 0 1 -14.08152,14.0815 v -14.0815 z" /><path
       style="display:none;opacity:1;fill:#71c837;fill-opacity:1;stroke-width:1.32216;stroke-linecap:round;stroke-linejoin:round;stroke-dasharray:1.32216, 2.64432;paint-order:fill markers stroke"
       id="circle11"
       inkscape:label="circle_105"
       transform="rotate(-90)"
       sodipodi:type="arc"
       sodipodi:cx="-578.09973"
       sodipodi:cy="1587.2968"
       sodipodi:rx="14.081522"
       sodipodi:ry="14.081522"
       sodipodi:start="0"
       sodipodi:end="1.8325957"
       sodipodi:arc-type="slice"
       d="m -564.01821,1587.2968 a 14.081522,14.081522 0 0 1 -5.50923,11.1716 14.081522,14.081522 0 0 1 -12.21686,2.4301 l 3.64457,-13.6017 z" /><path
       style="display:none;opacity:1;fill:#71c837;fill-opacity:1;stroke-width:1.32216;stroke-linecap:round;stroke-linejoin:round;stroke-dasharray:1.32216, 2.64432;paint-order:fill markers stroke"
       id="circle12"
       inkscape:label="circle_120"
       transform="rotate(-90)"
       sodipodi:type="arc"
       sodipodi:cx="-578.09973"
       sodipodi:cy="1587.2968"
       sodipodi:rx="14.081522"
       sodipodi:ry="14.081522"
       sodipodi:start="0"
       sodipodi:end="2.0943951"
       sodipodi:arc-type="slice"
       d="m -564.01821,1587.2968 a 14.081522,14.081522 0 0 1 -7.04076,12.1949 14.081522,14.081522 0 0 1 -14.08152,0 l 7.04076,-12.1949 z" /><path
       style="display:none;opacity:1;fill:#71c837;fill-opacity:1;stroke-width:1.32216;stroke-linecap:round;stroke-linejoin:round;stroke-dasharray:1.32216, 2.64432;paint-order:fill markers stroke"
       id="circle13"
       inkscape:label="circle_135"
       transform="rotate(-90)"
       sodipodi:type="arc"
       sodipodi:cx="-578.09973"
       sodipodi:cy="1587.2968"
       sodipodi:rx="14.081522"
       sodipodi:ry="14.081522"
       sodipodi:start="0"
       sodipodi:end="2.3561945"
       sodipodi:arc-type="slice"
       d="m -564.01821,1587.2968 a 14.081522,14.081522 0 0 1 -8.69276,13.0096 14.081522,14.081522 0 0 1 -15.3459,-3.0525 l 9.95714,-9.9571 z" /><path
       style="display:none;opacity:1;fill:#71c837;fill-opacity:1;stroke-width:1.32216;stroke-linecap:round;stroke-linejoin:round;stroke-dasharray:1.32216, 2.64432;paint-order:fill markers stroke"
       id="circle14"
       inkscape:label="circle_150"
       transform="rotate(-90)"
       sodipodi:type="arc"
       sodipodi:cx="-578.09973"
       sodipodi:cy="1587.2968"
       sodipodi:rx="14.081522"
       sodipodi:ry="14.081522"
       sodipodi:start="0"
       sodipodi:end="2.6179939"
       sodipodi:arc-type="slice"
       d="m -564.01821,1587.2968 a 14.081522,14.081522 0 0 1 -10.43696,13.6017 14.081522,14.081522 0 0 1 -15.83952,-6.561 l 12.19496,-7.0407 z" /><path
       style="display:none;opacity:1;fill:#71c837;fill-opacity:1;stroke-width:1.32216;stroke-linecap:round;stroke-linejoin:round;stroke-dasharray:1.32216, 2.64432;paint-order:fill markers stroke"
       id="circle15"
       inkscape:label="circle_165"
       transform="rotate(-90)"
       sodipodi:type="arc"
       sodipodi:cx="-578.09973"
       sodipodi:cy="1587.2968"
       sodipodi:rx="14.081522"
       sodipodi:ry="14.081522"
       sodipodi:start="0"
       sodipodi:end="2.8797933"
       sodipodi:arc-type="slice"
       d="m -564.01821,1587.2968 a 14.081522,14.081522 0 0 1 -12.24351,13.961 14.081522,14.081522 0 0 1 -15.43972,-10.3165 l 13.60171,-3.6445 z" /><path
       style="display:none;opacity:1;fill:#71c837;fill-opacity:1;stroke-width:1.32216;stroke-linecap:round;stroke-linejoin:round;stroke-dasharray:1.32216, 2.64432;paint-order:fill markers stroke"
       id="circle16"
       inkscape:label="circle_180"
       transform="rotate(-90)"
       sodipodi:type="arc"
       sodipodi:cx="-578.09973"
       sodipodi:cy="1587.2968"
       sodipodi:rx="14.081522"
       sodipodi:ry="14.081522"
       sodipodi:start="0"
       sodipodi:end="3.1415927"
       sodipodi:arc-type="slice"
       d="m -564.01821,1587.2968 a 14.081522,14.081522 0 0 1 -7.04076,12.1949 14.081522,14.081522 0 0 1 -14.08152,0 14.081522,14.081522 0 0 1 -7.04076,-12.1949 h 14.08152 z" /><path
       style="display:none;opacity:1;fill:#71c837;fill-opacity:1;stroke-width:1.32216;stroke-linecap:round;stroke-linejoin:round;stroke-dasharray:1.32216, 2.64432;paint-order:fill markers stroke"
       id="circle17"
       inkscape:label="circle_195"
       transform="rotate(-90)"
       sodipodi:type="arc"
       sodipodi:cx="-578.09973"
       sodipodi:cy="1587.2968"
       sodipodi:rx="14.081522"
       sodipodi:ry="14.081522"
       sodipodi:start="0"
       sodipodi:end="3.403392"
       sodipodi:arc-type="slice"
       d="m -564.01821,1587.2968 a 14.081522,14.081522 0 0 1 -8.13041,12.7621 14.081522,14.081522 0 0 1 -15.00254,-1.9751 14.081522,14.081522 0 0 1 -4.55028,-14.4316 l 13.60171,3.6446 z" /><path
       style="display:none;opacity:1;fill:#71c837;fill-opacity:1;stroke-width:1.32216;stroke-linecap:round;stroke-linejoin:round;stroke-dasharray:1.32216, 2.64432;paint-order:fill markers stroke"
       id="circle18"
       inkscape:label="circle_210"
       transform="rotate(-90)"
       sodipodi:type="arc"
       sodipodi:cx="-578.09973"
       sodipodi:cy="1587.2968"
       sodipodi:rx="14.081522"
       sodipodi:ry="14.081522"
       sodipodi:start="0"
       sodipodi:end="3.6651914"
       sodipodi:arc-type="slice"
       d="m -564.01821,1587.2968 a 14.081522,14.081522 0 0 1 -9.26536,13.2323 14.081522,14.081522 0 0 1 -15.60323,-4.1809 14.081522,14.081522 0 0 1 -1.40789,-16.0922 l 12.19496,7.0408 z" /><path
       style="display:none;opacity:1;fill:#71c837;fill-opacity:1;stroke-width:1.32216;stroke-linecap:round;stroke-linejoin:round;stroke-dasharray:1.32216, 2.64432;paint-order:fill markers stroke"
       id="circle19"
       inkscape:label="circle_225"
       transform="rotate(-90)"
       sodipodi:type="arc"
       sodipodi:cx="-578.09973"
       sodipodi:cy="1587.2968"
       sodipodi:rx="14.081522"
       sodipodi:ry="14.081522"
       sodipodi:start="0"
       sodipodi:end="3.9269908"
       sodipodi:arc-type="slice"
       d="m -564.01821,1587.2968 a 14.081522,14.081522 0 0 1 -10.43696,13.6017 14.081522,14.081522 0 0 1 -15.83952,-6.561 14.081522,14.081522 0 0 1 2.23782,-16.9979 l 9.95714,9.9572 z" /><path
       style="display:none;opacity:1;fill:#71c837;fill-opacity:1;stroke-width:1.32216;stroke-linecap:round;stroke-linejoin:round;stroke-dasharray:1.32216, 2.64432;paint-order:fill markers stroke"
       id="circle20"
       inkscape:label="circle_240"
       transform="rotate(-90)"
       sodipodi:type="arc"
       sodipodi:cx="-578.09973"
       sodipodi:cy="1587.2968"
       sodipodi:rx="14.081522"
       sodipodi:ry="14.081522"
       sodipodi:start="0"
       sodipodi:end="4.1887902"
       sodipodi:arc-type="slice"
       d="m -564.01821,1587.2968 a 14.081522,14.081522 0 0 1 -11.63629,13.8675 14.081522,14.081522 0 0 1 -15.67753,-9.0514 14.081522,14.081522 0 0 1 6.19154,-17.0111 l 7.04076,12.195 z" /><path
       style="display:none;opacity:1;fill:#71c837;fill-opacity:1;stroke-width:1.32216;stroke-linecap:round;stroke-linejoin:round;stroke-dasharray:1.32216, 2.64432;paint-order:fill markers stroke"
       id="circle21"
       inkscape:label="circle_255"
       transform="rotate(-90)"
       sodipodi:type="arc"
       sodipodi:cx="-578.09973"
       sodipodi:cy="1587.2968"
       sodipodi:rx="14.081522"
       sodipodi:ry="14.081522"
       sodipodi:start="0"
       sodipodi:end="4.4505896"
       sodipodi:arc-type="slice"
       d="m -564.01821,1587.2968 a 14.081522,14.081522 0 0 1 -12.85424,14.0279 14.081522,14.081522 0 0 1 -15.09487,-11.5827 14.081522,14.081522 0 0 1 10.22302,-16.047 l 3.64457,13.6018 z" /><path
       style="display:none;opacity:1;fill:#71c837;fill-opacity:1;stroke-width:1.32216;stroke-linecap:round;stroke-linejoin:round;stroke-dasharray:1.32216, 2.64432;paint-order:fill markers stroke"
       id="circle22"
       inkscape:label="circle_270"
       transform="rotate(-90)"
       sodipodi:type="arc"
       sodipodi:cx="-578.09973"
       sodipodi:cy="1587.2968"
       sodipodi:rx="14.081522"
       sodipodi:ry="14.081522"
       sodipodi:start="0"
       sodipodi:end="4.712389"
       sodipodi:arc-type="slice"
       d="m -564.01821,1587.2968 a 14.081522,14.081522 0 0 1 -8.69276,13.0096 14.081522,14.081522 0 0 1 -15.3459,-3.0525 14.081522,14.081522 0 0 1 -3.05249,-15.3459 14.081522,14.081522 0 0 1 13.00963,-8.6928 v 14.0816 z" /><path
       style="display:none;opacity:1;fill:#71c837;fill-opacity:1;stroke-width:1.32216;stroke-linecap:round;stroke-linejoin:round;stroke-dasharray:1.32216, 2.64432;paint-order:fill markers stroke"
       id="circle23"
       inkscape:label="circle_285"
       transform="rotate(-90)"
       sodipodi:type="arc"
       sodipodi:cx="-578.09973"
       sodipodi:cy="1587.2968"
       sodipodi:rx="14.081522"
       sodipodi:ry="14.081522"
       sodipodi:start="0"
       sodipodi:end="4.9741884"
       sodipodi:arc-type="slice"
       d="m -564.01821,1587.2968 a 14.081522,14.081522 0 0 1 -9.55516,13.3342 14.081522,14.081522 0 0 1 -15.69798,-4.762 14.081522,14.081522 0 0 1 -0.53674,-16.3955 14.081522,14.081522 0 0 1 15.35293,-5.7785 l -3.64457,13.6018 z" /><path
       style="display:none;opacity:1;fill:#71c837;fill-opacity:1;stroke-width:1.32216;stroke-linecap:round;stroke-linejoin:round;stroke-dasharray:1.32216, 2.64432;paint-order:fill markers stroke"
       id="circle24"
       inkscape:label="circle_300"
       transform="rotate(-90)"
       sodipodi:type="arc"
       sodipodi:cx="-578.09973"
       sodipodi:cy="1587.2968"
       sodipodi:rx="14.081522"
       sodipodi:ry="14.081522"
       sodipodi:start="0"
       sodipodi:end="5.2359878"
       sodipodi:arc-type="slice"
       d="m -564.01821,1587.2968 a 14.081522,14.081522 0 0 1 -10.43696,13.6017 14.081522,14.081522 0 0 1 -15.83952,-6.561 14.081522,14.081522 0 0 1 2.23782,-16.9979 14.081522,14.081522 0 0 1 16.9979,-2.2378 l -7.04076,12.195 z" /><path
       style="display:none;opacity:1;fill:#71c837;fill-opacity:1;stroke-width:1.32216;stroke-linecap:round;stroke-linejoin:round;stroke-dasharray:1.32216, 2.64432;paint-order:fill markers stroke"
       id="circle25"
       inkscape:label="circle_315"
       transform="rotate(-90)"
       sodipodi:type="arc"
       sodipodi:cx="-578.09973"
       sodipodi:cy="1587.2968"
       sodipodi:rx="14.081522"
       sodipodi:ry="14.081522"
       sodipodi:start="0"
       sodipodi:end="5.4977871"
       sodipodi:arc-type="slice"
       d="m -564.01821,1587.2968 a 14.081522,14.081522 0 0 1 -11.33435,13.8109 14.081522,14.081522 0 0 1 -15.7568,-8.4222 14.081522,14.081522 0 0 1 5.18635,-17.0971 14.081522,14.081522 0 0 1 17.78042,1.7512 l -9.95714,9.9572 z" /><path
       style="display:none;opacity:1;fill:#71c837;fill-opacity:1;stroke-width:1.32216;stroke-linecap:round;stroke-linejoin:round;stroke-dasharray:1.32216, 2.64432;paint-order:fill markers stroke"
       id="circle26"
       inkscape:label="circle_330"
       transform="rotate(-90)"
       sodipodi:type="arc"
       sodipodi:cx="-578.09973"
       sodipodi:cy="1587.2968"
       sodipodi:rx="14.081522"
       sodipodi:ry="14.081522"
       sodipodi:start="0"
       sodipodi:end="5.7595865"
       sodipodi:arc-type="slice"
       d="m -564.01821,1587.2968 a 14.081522,14.081522 0 0 1 -12.24351,13.961 14.081522,14.081522 0 0 1 -15.43972,-10.3165 14.081522,14.081522 0 0 1 8.21294,-16.6542 14.081522,14.081522 0 0 1 17.58372,5.9689 l -12.19495,7.0408 z" /><path
       style="display:inline;opacity:1;fill:#71c837;fill-opacity:1;stroke-width:1.32216;stroke-linecap:round;stroke-linejoin:round;stroke-dasharray:1.32216, 2.64432;paint-order:fill markers stroke"
       id="circle27"
       inkscape:label="circle_345"
       transform="rotate(-90)"
       sodipodi:type="arc"
       sodipodi:cx="-578.09973"
       sodipodi:cy="1587.2968"
       sodipodi:rx="14.081522"
       sodipodi:ry="14.081522"
       sodipodi:start="0"
       sodipodi:end="6.0213859"
       sodipodi:arc-type="slice"
       d="m -564.01821,1587.2968 a 14.081522,14.081522 0 0 1 -13.16055,14.0513 14.081522,14.081522 0 0 1 -14.88202,-12.2133 14.081522,14.081522 0 0 1 11.21388,-15.649 14.081522,14.081522 0 0 1 16.34887,10.1664 l -13.6017,3.6446 z" /><circle
       style="display:inline;opacity:1;fill:#71c837;fill-opacity:1;stroke-width:1.32216;stroke-linecap:round;stroke-linejoin:round;stroke-dasharray:1.32216, 2.64432;paint-order:fill markers stroke"
       id="circle28"
       cx="-578.09973"
       cy="1587.2968"
       r="14.081522"
       inkscape:label="circle_360"
       transform="rotate(-90)" /></g></svg>
